<svg width="37" height="39" viewBox="0 0 37 39" fill="none" xmlns="http://www.w3.org/2000/svg">
<path d="M18.6227 27.2777C22.7775 27.2777 26.1457 23.7954 26.1457 19.4999C26.1457 15.2044 22.7775 11.7222 18.6227 11.7222C14.4679 11.7222 11.0997 15.2044 11.0997 19.4999C11.0997 23.7954 14.4679 27.2777 18.6227 27.2777Z" stroke="black" stroke-width="2.5" stroke-linecap="round" stroke-linejoin="round"/>
<path d="M1.6958 27.2778V11.7222C1.6958 6.35279 5.90601 2 11.0995 2H26.1455C31.339 2 35.5493 6.35279 35.5493 11.7222V27.2778C35.5493 32.6472 31.339 37 26.1455 37H11.0995C5.90601 37 1.6958 32.6472 1.6958 27.2778Z" stroke="black" stroke-width="2.5"/>
<path d="M28.9668 8.82394L28.9855 8.80334" stroke="black" stroke-width="2.5" stroke-linecap="round" stroke-linejoin="round"/>
</svg>
