<svg width="65" height="26" viewBox="0 0 65 26" fill="none" xmlns="http://www.w3.org/2000/svg">
<g clip-path="url(#clip0_54_2)">
<path d="M9.20874 0.482775C9.73118 0.50633 10.4153 0.529775 11.2612 0.55333C12.1071 0.576885 12.9404 0.588607 13.7614 0.588607C14.9306 0.588607 16.0501 0.576885 17.1199 0.55333C18.1897 0.529775 18.9484 0.518053 19.3962 0.518053C22.0084 0.518053 23.9738 1.03549 25.2923 2.07026C26.6108 3.10503 27.2701 4.43384 27.2701 6.0566C27.2701 6.8797 27.0835 7.69109 26.7103 8.49074C26.3621 9.26685 25.765 9.98412 24.9191 10.6427C24.0982 11.2777 22.991 11.7951 21.5979 12.1949V12.2654C23.5633 12.5006 25.0933 12.9474 26.1879 13.606C27.3074 14.241 28.0911 14.9935 28.5389 15.8637C28.9867 16.7339 29.2106 17.6511 29.2106 18.6154C29.2106 19.9559 28.8498 21.1436 28.1284 22.1784C27.4317 23.1897 26.4118 23.9892 25.0684 24.5772C23.725 25.1652 22.1204 25.4592 20.2545 25.4592C19.7072 25.4592 18.8862 25.4474 17.7916 25.4239C16.697 25.3769 15.3784 25.3533 13.836 25.3533C12.9653 25.3533 12.1071 25.3651 11.2612 25.3886C10.4153 25.3886 9.73118 25.4122 9.20874 25.4592V24.7536C10.0546 24.7066 10.689 24.6125 11.1119 24.4714C11.5597 24.3303 11.8582 24.0481 12.0075 23.6247C12.1568 23.2014 12.2314 22.5664 12.2314 21.7198V4.22218C12.2314 3.35197 12.1568 2.71697 12.0075 2.3172C11.8582 1.89387 11.5597 1.61165 11.1119 1.47054C10.689 1.30588 10.0546 1.21188 9.20874 1.18832V0.482775ZM18.4633 1.18832C17.3189 1.18832 16.5726 1.38827 16.2243 1.78804C15.8761 2.18781 15.7019 2.99919 15.7019 4.22218V21.7198C15.7019 22.5429 15.7765 23.1661 15.9258 23.5895C16.075 24.0128 16.3487 24.295 16.7467 24.4361C17.1448 24.5772 17.7294 24.6478 18.5006 24.6478C20.9386 24.6478 22.705 24.1186 23.7996 23.0603C24.9191 21.9784 25.4789 20.4498 25.4789 18.4742C25.4789 16.6634 24.9564 15.264 23.9116 14.2762C22.8916 13.2885 21.1998 12.7946 18.8365 12.7946H14.9928C14.9928 12.7946 14.9928 12.7005 14.9928 12.5124C14.9928 12.3007 14.9928 12.1949 14.9928 12.1949H18.2021C19.6699 12.1949 20.8019 11.9362 21.5979 11.4188C22.394 10.8779 22.9413 10.1723 23.2399 9.30212C23.5384 8.40847 23.6877 7.45598 23.6877 6.44465C23.6877 4.70434 23.2772 3.39908 22.4562 2.52886C21.6602 1.63521 20.3292 1.18832 18.4633 1.18832ZM44.9227 -0.0111084C46.5397 -0.0111084 47.8458 0.224111 48.8409 0.69444C49.8361 1.14132 50.769 1.67048 51.6397 2.28192C51.9632 2.51714 52.2119 2.6347 52.386 2.6347C52.8588 2.6347 53.1697 1.91743 53.319 0.482775H54.1773C54.1275 1.35299 54.0902 2.41131 54.0653 3.65774C54.0404 4.90417 54.028 6.55049 54.028 8.59658H53.1697C52.9955 7.60881 52.7841 6.65632 52.5353 5.73911C52.2865 4.82189 51.876 4.03407 51.3039 3.37552C50.5824 2.50531 49.637 1.83504 48.4678 1.36471C47.2985 0.870827 46.0919 0.623884 44.848 0.623884C43.6042 0.623884 42.4722 0.917826 41.4522 1.50582C40.4571 2.07026 39.5988 2.89336 38.8774 3.97524C38.1559 5.05711 37.5962 6.36238 37.1981 7.89103C36.8249 9.39623 36.6383 11.1013 36.6383 13.0062C36.6383 17.2395 37.3598 20.3439 38.8027 22.3195C40.2457 24.2715 42.4847 25.2475 45.5197 25.2475C46.4153 25.2475 47.1866 25.1299 47.8334 24.8947C48.5051 24.6361 49.0275 24.3891 49.4007 24.1539C49.8734 23.8481 50.1719 23.5659 50.2963 23.3072C50.4206 23.025 50.4829 22.6605 50.4829 22.2136V18.827C50.4829 17.8628 50.3833 17.1454 50.1843 16.6751C49.9854 16.2048 49.6122 15.8873 49.0648 15.7226C48.5424 15.5579 47.7588 15.4639 46.7139 15.4404V14.7348C47.1617 14.7584 47.6841 14.7818 48.2812 14.8054C48.8783 14.8054 49.5002 14.8171 50.147 14.8407C50.8187 14.8407 51.4282 14.8407 51.9756 14.8407C52.7965 14.8407 53.5305 14.8289 54.1773 14.8054C54.849 14.7818 55.4087 14.7584 55.8565 14.7348V15.4404C55.3092 15.4639 54.8987 15.5462 54.625 15.6873C54.3514 15.8284 54.1649 16.1107 54.0653 16.534C53.9907 16.9573 53.9533 17.604 53.9533 18.4742V25.4592H53.207C53.1821 25.0594 53.0827 24.6242 52.9085 24.1539C52.7592 23.6836 52.5229 23.4484 52.1995 23.4484C52.0502 23.4484 51.9009 23.4836 51.7517 23.5542C51.6024 23.6247 51.3412 23.7894 50.968 24.0481C50.147 24.6361 49.2763 25.1064 48.3558 25.4592C47.4353 25.7884 46.3656 25.9531 45.1466 25.9531C42.5841 25.9531 40.3824 25.4592 38.5415 24.4714C36.7254 23.4601 35.3323 22.0137 34.362 20.1323C33.3918 18.2509 32.9067 16.0048 32.9067 13.3943C32.9067 10.6427 33.4291 8.26736 34.474 6.26827C35.5188 4.26918 36.9369 2.7288 38.7281 1.64693C40.5442 0.541607 42.609 -0.0111084 44.9227 -0.0111084Z" fill="black"/>
<path d="M65.7027 7.05359H-0.702698V18.8858H65.7027V7.05359Z" fill="white"/>
<path d="M12.4271 15.7676C12.3984 15.7676 12.3768 15.7608 12.3625 15.7472C12.3481 15.7336 12.3409 15.7132 12.3409 15.6861V10.8226C12.3409 10.791 12.3481 10.7683 12.3625 10.7547C12.3816 10.7366 12.4056 10.7275 12.4343 10.7275H14.0941C14.7312 10.7275 15.2222 10.8385 15.5671 11.0604C15.9167 11.2822 16.0916 11.6061 16.0916 12.0317C16.0916 12.3034 16.0149 12.5343 15.8617 12.7245C15.7132 12.9102 15.4761 13.0574 15.1503 13.166C15.1312 13.1705 15.1216 13.1796 15.1216 13.1932C15.1216 13.2068 15.1312 13.2159 15.1503 13.2204C15.4952 13.3019 15.7587 13.4422 15.9407 13.6415C16.1275 13.8362 16.2209 14.0966 16.2209 14.4227C16.2209 14.8755 16.0413 15.2129 15.682 15.4347C15.3228 15.6566 14.8102 15.7676 14.1444 15.7676H12.4271ZM14.1085 15.2921C14.5779 15.2921 14.9276 15.2219 15.1575 15.0815C15.3874 14.9366 15.5024 14.7102 15.5024 14.4023C15.5024 14.1804 15.4449 14.0015 15.33 13.8657C15.215 13.7253 15.0593 13.6234 14.8629 13.56C14.6665 13.4966 14.4414 13.4649 14.1875 13.4649H13.1313C13.0642 13.4649 13.0307 13.4921 13.0307 13.5464V15.197C13.0307 15.2604 13.0522 15.2921 13.0953 15.2921H14.1085ZM14.1875 12.9758C14.3312 12.9758 14.4749 12.9623 14.6186 12.9351C14.7623 12.9079 14.8917 12.8627 15.0066 12.7992C15.1264 12.7313 15.2198 12.643 15.2868 12.5343C15.3587 12.4212 15.3946 12.2785 15.3946 12.1064C15.3946 11.7984 15.2749 11.5721 15.0354 11.4272C14.8006 11.2777 14.4869 11.203 14.0941 11.203H13.1241C13.0618 11.203 13.0307 11.2302 13.0307 11.2845V12.8875C13.0307 12.9464 13.0522 12.9758 13.0953 12.9758H14.1875ZM17.9398 10.8226C17.9398 10.7592 17.9685 10.7275 18.026 10.7275H21.2522C21.3001 10.7275 21.324 10.7524 21.324 10.8022V11.1487C21.324 11.203 21.2929 11.2302 21.2306 11.2302H18.723C18.6607 11.2302 18.6295 11.2573 18.6295 11.3117V12.9011C18.6295 12.951 18.6559 12.9758 18.7086 12.9758H20.5696C20.6222 12.9758 20.6486 13.0007 20.6486 13.0506V13.4106C20.6486 13.4286 20.6438 13.4445 20.6342 13.4581C20.6246 13.4672 20.6031 13.4717 20.5696 13.4717H18.7086C18.6559 13.4717 18.6295 13.4966 18.6295 13.5464V15.197C18.6295 15.2423 18.6535 15.2649 18.7014 15.2649H21.3384C21.3911 15.2649 21.4174 15.2876 21.4174 15.3329V15.6929C21.4174 15.7155 21.4102 15.7336 21.3959 15.7472C21.3863 15.7608 21.3671 15.7676 21.3384 15.7676H18.0404C17.9733 15.7676 17.9398 15.7359 17.9398 15.6725V10.8226ZM22.7246 15.7676C22.6959 15.7676 22.6743 15.7585 22.6599 15.7404C22.6504 15.7177 22.6504 15.6884 22.6599 15.6521L24.5209 10.8226C24.5353 10.791 24.5521 10.7683 24.5712 10.7547C24.5904 10.7366 24.6215 10.7275 24.6646 10.7275H25.2251C25.3113 10.7275 25.3664 10.7615 25.3903 10.8294L27.2297 15.6521C27.2393 15.6793 27.2369 15.7065 27.2225 15.7336C27.213 15.7563 27.1915 15.7676 27.1579 15.7676H26.6477C26.5902 15.7676 26.552 15.7449 26.5328 15.6997L26.037 14.3819C26.0275 14.3638 26.0179 14.3502 26.0082 14.3411C25.9987 14.3321 25.9795 14.3276 25.9508 14.3276H23.8599C23.8167 14.3276 23.788 14.3456 23.7736 14.3819L23.2635 15.7065C23.2587 15.7245 23.2468 15.7404 23.2276 15.754C23.2132 15.7631 23.1893 15.7676 23.1557 15.7676H22.7246ZM25.7639 13.8113C25.8214 13.8113 25.8407 13.7819 25.8214 13.723L24.9592 11.4883C24.9401 11.4475 24.921 11.4272 24.9017 11.4272C24.8873 11.4272 24.873 11.4475 24.8586 11.4883L23.982 13.7366C23.9581 13.7865 23.9725 13.8113 24.0251 13.8113H25.7639ZM36.3085 15.6521C35.8487 15.6521 35.451 15.5502 35.1158 15.3464C34.7804 15.1382 34.5241 14.8438 34.3469 14.4634C34.1696 14.0785 34.0811 13.6188 34.0811 13.0845C34.0811 12.5366 34.1745 12.068 34.3613 11.6785C34.5481 11.289 34.8116 10.9924 35.1517 10.7887C35.4917 10.5804 35.8869 10.4762 36.3373 10.4762C36.6726 10.4762 36.9791 10.5396 37.257 10.6664C37.5395 10.7931 37.7719 10.9608 37.954 11.169C38.1408 11.3773 38.2533 11.5993 38.2917 11.8347C38.2964 11.871 38.294 11.8958 38.2845 11.9094C38.2796 11.923 38.2629 11.9343 38.2342 11.9434L37.7168 12.0181C37.6929 12.0226 37.6737 12.0204 37.6594 12.0113C37.6497 11.9977 37.6426 11.9773 37.6378 11.9502C37.6042 11.7691 37.5276 11.6061 37.4079 11.4611C37.288 11.3117 37.1348 11.1939 36.948 11.1079C36.766 11.0173 36.56 10.9721 36.3301 10.9721C36.0043 10.9721 35.7265 11.0513 35.4966 11.2098C35.2667 11.3637 35.0918 11.597 34.9721 11.9094C34.8571 12.2174 34.7996 12.5955 34.7996 13.0438C34.7996 13.5148 34.8571 13.9087 34.9721 14.2257C35.0918 14.5381 35.2667 14.7714 35.4966 14.9253C35.7313 15.0792 36.0139 15.1563 36.3445 15.1563C36.5791 15.1563 36.7828 15.12 36.9552 15.0476C37.1277 14.9706 37.2714 14.871 37.3863 14.7487C37.5013 14.6219 37.5898 14.4883 37.6522 14.3479C37.7144 14.203 37.7479 14.0627 37.7528 13.9268L37.76 13.5193C37.7695 13.474 37.7456 13.4513 37.6881 13.4513H36.5169C36.4882 13.4513 36.4666 13.4468 36.4522 13.4377C36.4426 13.4242 36.4379 13.4038 36.4379 13.3766V13.0845C36.4379 13.0438 36.4617 13.0234 36.5097 13.0234L38.2917 13.0302C38.3252 13.0302 38.3515 13.037 38.3707 13.0506C38.3898 13.0642 38.3994 13.0845 38.3994 13.1117V15.4959C38.3994 15.5275 38.3923 15.5502 38.3779 15.5638C38.3635 15.5774 38.342 15.5842 38.3132 15.5842H38.148C38.1143 15.5842 38.0856 15.5797 38.0617 15.5706C38.0425 15.5615 38.0281 15.5389 38.0186 15.5027L37.9396 14.871C37.9347 14.8529 37.9252 14.8438 37.9108 14.8438C37.9012 14.8438 37.8893 14.8551 37.8749 14.8778C37.7838 15.0136 37.6689 15.1404 37.53 15.2581C37.3911 15.3759 37.2211 15.471 37.0199 15.5434C36.8187 15.6158 36.5816 15.6521 36.3085 15.6521ZM40.1976 10.6392C40.1976 10.5758 40.2263 10.5441 40.2838 10.5441H40.8012C40.8586 10.5441 40.8874 10.5736 40.8874 10.6324V15.0136C40.8874 15.0589 40.9113 15.0815 40.9592 15.0815H43.4453C43.5028 15.0815 43.5316 15.1042 43.5316 15.1495V15.5095C43.5316 15.5321 43.5244 15.5502 43.51 15.5638C43.4956 15.5774 43.4741 15.5842 43.4453 15.5842H40.2982C40.2598 15.5842 40.2335 15.5774 40.2192 15.5638C40.2048 15.5457 40.1976 15.5208 40.1976 15.4891V10.6392ZM46.6584 15.6521C46.1889 15.6521 45.7818 15.5525 45.4369 15.3532C45.0968 15.154 44.8357 14.8642 44.6537 14.4838C44.4717 14.0989 44.3807 13.6324 44.3807 13.0845C44.3807 12.532 44.4741 12.0612 44.6609 11.6717C44.8477 11.2822 45.1111 10.9856 45.4513 10.7819C45.7913 10.5781 46.1961 10.4762 46.6656 10.4762C47.1349 10.4762 47.5373 10.5781 47.8727 10.7819C48.2127 10.9856 48.4738 11.28 48.6559 11.6649C48.8427 12.0498 48.9361 12.5208 48.9361 13.0777C48.9361 13.6256 48.845 14.0921 48.6631 14.477C48.481 14.8574 48.2176 15.1495 47.8727 15.3532C47.5326 15.5525 47.1278 15.6521 46.6584 15.6521ZM46.6728 15.1563C47.1901 15.1563 47.5757 14.9887 47.8296 14.6536C48.0883 14.314 48.2176 13.791 48.2176 13.0845C48.2176 12.3645 48.0858 11.8324 47.8224 11.4883C47.5637 11.1442 47.1781 10.9721 46.6656 10.9721C46.1482 10.9721 45.7578 11.1464 45.4944 11.4951C45.2309 11.8392 45.0992 12.369 45.0992 13.0845C45.0992 13.7865 45.2309 14.3072 45.4944 14.6468C45.7578 14.9864 46.1506 15.1563 46.6728 15.1563ZM50.7587 15.5842C50.73 15.5842 50.7084 15.5774 50.6941 15.5638C50.6797 15.5502 50.6725 15.5298 50.6725 15.5027V10.6392C50.6725 10.6076 50.6797 10.5849 50.6941 10.5713C50.7133 10.5532 50.7372 10.5441 50.7659 10.5441H52.4257C53.0629 10.5441 53.5538 10.6551 53.8987 10.877C54.2484 11.0988 54.4232 11.4227 54.4232 11.8483C54.4232 12.12 54.3466 12.3509 54.1933 12.5411C54.0448 12.7268 53.8077 12.874 53.4819 12.9826C53.4628 12.9871 53.4532 12.9962 53.4532 13.0098C53.4532 13.0234 53.4628 13.0325 53.4819 13.037C53.8268 13.1185 54.0904 13.2588 54.2723 13.4581C54.4591 13.6528 54.5525 13.9132 54.5525 14.2393C54.5525 14.6921 54.3729 15.0295 54.0136 15.2514C53.6544 15.4732 53.1419 15.5842 52.476 15.5842H50.7587ZM52.4401 15.1087C52.9095 15.1087 53.2592 15.0385 53.4891 14.8981C53.719 14.7532 53.834 14.5268 53.834 14.2189C53.834 13.997 53.7765 13.8181 53.6616 13.6823C53.5466 13.5419 53.391 13.44 53.1945 13.3766C52.9982 13.3132 52.773 13.2815 52.5191 13.2815H51.4629C51.3959 13.2815 51.3623 13.3087 51.3623 13.363V15.0136C51.3623 15.077 51.3838 15.1087 51.427 15.1087H52.4401ZM52.5191 12.7925C52.6628 12.7925 52.8065 12.7789 52.9502 12.7517C53.0939 12.7245 53.2233 12.6793 53.3382 12.6158C53.4581 12.5479 53.5515 12.4596 53.6185 12.3509C53.6903 12.2378 53.7262 12.0951 53.7262 11.923C53.7262 11.615 53.6065 11.3887 53.367 11.2438C53.1323 11.0943 52.8186 11.0196 52.4257 11.0196H51.4557C51.3935 11.0196 51.3623 11.0468 51.3623 11.1011V12.7042C51.3623 12.763 51.3838 12.7925 51.427 12.7925H52.5191Z" fill="black"/>
</g>
<defs>
<clipPath id="clip0_54_2">
<rect width="65" height="26" fill="white"/>
</clipPath>
</defs>
</svg>
