<svg width="72" height="64" viewBox="0 0 72 64" fill="none" xmlns="http://www.w3.org/2000/svg">
<path d="M10.7465 15.108C11.3129 15.135 12.0547 15.162 12.9718 15.189C13.889 15.2161 14.7925 15.2296 15.6827 15.2296C16.9504 15.2296 18.1642 15.2161 19.3241 15.189C20.484 15.162 21.3067 15.1485 21.7922 15.1485C24.6245 15.1485 26.7555 15.743 28.185 16.9319C29.6146 18.1208 30.3295 19.6475 30.3295 21.5119C30.3295 22.4576 30.1272 23.3899 29.7225 24.3086C29.345 25.2003 28.6976 26.0244 27.7804 26.781C26.8903 27.5106 25.6899 28.1051 24.1794 28.5644V28.6455C26.3104 28.9157 27.9693 29.429 29.1561 30.1857C30.3699 30.9152 31.2196 31.7799 31.7051 32.7797C32.1906 33.7795 32.4334 34.8333 32.4334 35.9411C32.4334 37.4813 32.0422 38.8459 31.26 40.0348C30.5047 41.1968 29.3989 42.1154 27.9423 42.791C26.4857 43.4665 24.7459 43.8043 22.7228 43.8043C22.1294 43.8043 21.2392 43.7908 20.0524 43.7637C18.8656 43.7097 17.4359 43.6827 15.7636 43.6827C14.8195 43.6827 13.889 43.6961 12.9718 43.7232C12.0547 43.7232 11.3129 43.7502 10.7465 43.8043V42.9936C11.6636 42.9396 12.3514 42.8315 12.81 42.6694C13.2955 42.5072 13.6192 42.183 13.781 41.6966C13.9429 41.2102 14.0238 40.4807 14.0238 39.5079V19.4043C14.0238 18.4045 13.9429 17.6749 13.781 17.2156C13.6192 16.7292 13.2955 16.405 12.81 16.2428C12.3514 16.0537 11.6636 15.9457 10.7465 15.9186V15.108ZM20.7807 15.9186C19.5399 15.9186 18.7307 16.1483 18.3531 16.6076C17.9755 17.0669 17.7866 17.9992 17.7866 19.4043V39.5079C17.7866 40.4536 17.8675 41.1697 18.0294 41.6561C18.1912 42.1425 18.4879 42.4667 18.9195 42.6288C19.3511 42.791 19.985 42.872 20.8212 42.872C23.4646 42.872 25.3798 42.2641 26.5666 41.0481C27.7804 39.8051 28.3873 38.0488 28.3873 35.779C28.3873 33.6984 27.8209 32.0907 26.688 30.9558C25.5821 29.8209 23.7478 29.2535 21.1853 29.2535H17.0179C17.0179 29.2535 17.0179 29.1453 17.0179 28.9292C17.0179 28.686 17.0179 28.5644 17.0179 28.5644H20.4975C22.0889 28.5644 23.3163 28.2672 24.1794 27.6727C25.0425 27.0513 25.636 26.2407 25.9597 25.2408C26.2834 24.2141 26.4452 23.1197 26.4452 21.9578C26.4452 19.9583 26.0002 18.4586 25.11 17.4588C24.2469 16.432 22.8038 15.9186 20.7807 15.9186ZM49.4693 14.5405C51.2225 14.5405 52.6386 14.8108 53.7176 15.3512C54.7966 15.8646 55.8082 16.4726 56.7522 17.1751C57.1029 17.4453 57.3725 17.5804 57.5614 17.5804C58.074 17.5804 58.4111 16.7563 58.5729 15.108H59.5035C59.4496 16.1078 59.4092 17.3237 59.3821 18.7558C59.3551 20.1879 59.3417 22.0794 59.3417 24.4302H58.4111C58.2222 23.2953 57.993 22.201 57.7233 21.1472C57.4535 20.0933 57.0084 19.1882 56.3881 18.4315C55.6059 17.4317 54.5808 16.6616 53.313 16.1213C52.0453 15.5538 50.737 15.2701 49.3883 15.2701C48.0397 15.2701 46.8123 15.6078 45.7064 16.2834C44.6274 16.9319 43.6968 17.8776 42.9146 19.1206C42.1324 20.3636 41.5255 21.8633 41.0939 23.6196C40.6893 25.349 40.487 27.3079 40.487 29.4966C40.487 34.3604 41.2692 37.9272 42.8337 40.197C44.3982 42.4396 46.8259 43.5611 50.1166 43.5611C51.0877 43.5611 51.9239 43.426 52.6252 43.1557C53.3535 42.8586 53.9199 42.5748 54.3246 42.3046C54.8371 41.9533 55.1608 41.629 55.2956 41.3318C55.4304 41.0076 55.4979 40.5888 55.4979 40.0754V36.1843C55.4979 35.0765 55.39 34.2523 55.1742 33.7119C54.9585 33.1715 54.5539 32.8068 53.9604 32.6176C53.394 32.4284 52.5443 32.3204 51.4114 32.2933V31.4827C51.8969 31.5097 52.4634 31.5367 53.1107 31.5637C53.7581 31.5637 54.4325 31.5772 55.1338 31.6043C55.8621 31.6043 56.5229 31.6043 57.1163 31.6043C58.0065 31.6043 58.8022 31.5908 59.5035 31.5637C60.2318 31.5367 60.8387 31.5097 61.3243 31.4827V32.2933C60.7308 32.3204 60.2857 32.4149 59.9891 32.577C59.6924 32.7392 59.4901 33.0634 59.3821 33.5498C59.3012 34.0362 59.2608 34.7792 59.2608 35.779V43.8043H58.4515C58.4245 43.3449 58.3167 42.845 58.1279 42.3046C57.966 41.7642 57.7098 41.494 57.3591 41.494C57.1973 41.494 57.0354 41.5345 56.8736 41.6156C56.7117 41.6966 56.4285 41.8858 56.0239 42.183C55.1338 42.8586 54.1897 43.3989 53.1916 43.8043C52.1936 44.1825 51.0338 44.3717 49.712 44.3717C46.9337 44.3717 44.5465 43.8043 42.5505 42.6694C40.5814 41.5074 39.0709 39.8456 38.0189 37.684C36.9669 35.5224 36.4409 32.9418 36.4409 29.9425C36.4409 26.781 37.0074 24.052 38.1403 21.7551C39.2732 19.4583 40.8107 17.6885 42.7528 16.4455C44.7219 15.1756 46.9607 14.5405 49.4693 14.5405Z" fill="black"/>
<path d="M72 22.6572H0V36.2516H72V22.6572Z" fill="white"/>
<path d="M0.849224 32.2867C0.818062 32.2867 0.79469 32.2789 0.779109 32.2633C0.763528 32.2477 0.755737 32.2243 0.755737 32.1931V26.6053C0.755737 26.5689 0.763528 26.5428 0.779109 26.5272C0.799883 26.5065 0.825853 26.496 0.857015 26.496H2.65664C3.3474 26.496 3.87976 26.6235 4.25371 26.8784C4.63284 27.1333 4.82242 27.5054 4.82242 27.9944C4.82242 28.3066 4.73932 28.5719 4.57312 28.7904C4.41212 29.0038 4.15503 29.1728 3.80185 29.2977C3.78108 29.3029 3.77069 29.3133 3.77069 29.3289C3.77069 29.3445 3.78108 29.355 3.80185 29.3601C4.1758 29.4538 4.46145 29.615 4.65882 29.844C4.86137 30.0677 4.96265 30.3669 4.96265 30.7415C4.96265 31.2617 4.76788 31.6494 4.37836 31.9043C3.98883 32.1592 3.43309 32.2867 2.71117 32.2867H0.849224ZM2.67222 31.7404C3.18121 31.7404 3.56034 31.6597 3.80964 31.4985C4.05894 31.332 4.18359 31.0719 4.18359 30.7181C4.18359 30.4632 4.12127 30.2576 3.99662 30.1015C3.87197 29.9403 3.70318 29.8232 3.49023 29.7504C3.27728 29.6775 3.03319 29.6411 2.75792 29.6411H1.6127C1.53998 29.6411 1.50363 29.6723 1.50363 29.7348V31.6312C1.50363 31.7041 1.527 31.7404 1.57375 31.7404H2.67222ZM2.75792 29.0792C2.91373 29.0792 3.06954 29.0636 3.22535 29.0324C3.38116 29.0012 3.52139 28.9492 3.64604 28.8763C3.77588 28.7982 3.87716 28.6968 3.94987 28.5719C4.02778 28.4419 4.06673 28.278 4.06673 28.0803C4.06673 27.7264 3.93689 27.4664 3.6772 27.2998C3.42272 27.1282 3.08252 27.0423 2.65664 27.0423H1.60491C1.5374 27.0423 1.50363 27.0735 1.50363 27.136V28.9777C1.50363 29.0453 1.527 29.0792 1.57375 29.0792H2.75792ZM6.82631 26.6053C6.82631 26.5324 6.85747 26.496 6.91979 26.496H10.4178C10.4697 26.496 10.4957 26.5246 10.4957 26.5819V26.9799C10.4957 27.0423 10.4619 27.0735 10.3944 27.0735H7.67548C7.60795 27.0735 7.5742 27.1047 7.5742 27.1672V28.9934C7.5742 29.0506 7.60276 29.0792 7.6599 29.0792H9.67766C9.73478 29.0792 9.76335 29.1078 9.76335 29.165V29.5787C9.76335 29.5994 9.75815 29.6177 9.74777 29.6333C9.73738 29.6437 9.71401 29.6489 9.67766 29.6489H7.6599C7.60276 29.6489 7.5742 29.6775 7.5742 29.7348V31.6312C7.5742 31.6832 7.60016 31.7092 7.65211 31.7092H10.5112C10.5684 31.7092 10.5969 31.7353 10.5969 31.7873V32.2009C10.5969 32.2269 10.5892 32.2477 10.5736 32.2633C10.5632 32.2789 10.5424 32.2867 10.5112 32.2867H6.93537C6.86266 32.2867 6.82631 32.2503 6.82631 32.1775V26.6053ZM12.0143 32.2867C11.9831 32.2867 11.9597 32.2763 11.9442 32.2555C11.9338 32.2295 11.9338 32.1957 11.9442 32.1541L13.9619 26.6053C13.9775 26.5689 13.9957 26.5428 14.0164 26.5272C14.0373 26.5065 14.071 26.496 14.1177 26.496H14.7254C14.8189 26.496 14.8787 26.535 14.9046 26.6131L16.8989 32.1541C16.9094 32.1853 16.9067 32.2165 16.8912 32.2477C16.8808 32.2738 16.8575 32.2867 16.821 32.2867H16.2679C16.2056 32.2867 16.1641 32.2607 16.1433 32.2087L15.6057 30.6947C15.5954 30.6739 15.585 30.6583 15.5745 30.6478C15.5642 30.6374 15.5434 30.6322 15.5122 30.6322H13.2452C13.1984 30.6322 13.1673 30.653 13.1517 30.6947L12.5985 32.2165C12.5934 32.2373 12.5805 32.2555 12.5596 32.2711C12.544 32.2816 12.5181 32.2867 12.4817 32.2867H12.0143ZM15.3097 30.0391C15.372 30.0391 15.3928 30.0053 15.372 29.9377L14.4371 27.3701C14.4164 27.3233 14.3957 27.2998 14.3748 27.2998C14.3592 27.2998 14.3436 27.3233 14.3281 27.3701L13.3776 29.9533C13.3517 30.0105 13.3673 30.0391 13.4243 30.0391H15.3097ZM22.3804 30.3591C22.3804 30.8222 22.2998 31.2019 22.1389 31.4985C21.983 31.7951 21.7493 32.0136 21.4377 32.1541C21.1261 32.2945 20.747 32.3648 20.3003 32.3648C19.8121 32.3648 19.4148 32.2867 19.1083 32.1306C18.8019 31.9746 18.5759 31.7378 18.4305 31.4205C18.2852 31.1031 18.2124 30.7051 18.2124 30.2264V26.6053C18.2124 26.5324 18.2436 26.496 18.3059 26.496H18.8668C18.9291 26.496 18.9603 26.5299 18.9603 26.5975V30.3903C18.9603 30.8637 19.0772 31.2149 19.3109 31.4439C19.5446 31.6728 19.89 31.7873 20.347 31.7873C20.6482 31.7873 20.9028 31.7378 21.1105 31.639C21.3235 31.5349 21.4818 31.3788 21.5857 31.1707C21.6948 30.9627 21.7493 30.6947 21.7493 30.3669V26.5975C21.7493 26.5299 21.7779 26.496 21.835 26.496H22.2947C22.3518 26.496 22.3804 26.5272 22.3804 26.5897V30.3591ZM24.0085 26.5819C24.0085 26.5558 24.0136 26.535 24.0241 26.5194C24.0396 26.5038 24.0656 26.496 24.102 26.496H28.2933C28.3245 26.496 28.3478 26.5038 28.3634 26.5194C28.379 26.535 28.3868 26.5558 28.3868 26.5819V26.9877C28.3868 27.0397 28.3556 27.0657 28.2933 27.0657H26.7118C26.6546 27.0657 26.6261 27.0918 26.6261 27.1438V32.1853C26.6261 32.2529 26.5949 32.2867 26.5326 32.2867H25.9717C25.9094 32.2867 25.8782 32.2529 25.8782 32.1853V27.1516C25.8782 27.0943 25.8522 27.0657 25.8003 27.0657H24.102C24.0396 27.0657 24.0085 27.0397 24.0085 26.9877V26.5819ZM33.9513 26.496C33.9876 26.496 34.0109 26.5065 34.0214 26.5272C34.037 26.548 34.0343 26.5741 34.0136 26.6053L32.1594 29.7113C32.1387 29.7426 32.1256 29.7738 32.1205 29.805C32.1153 29.8362 32.1127 29.8908 32.1127 29.9689V32.1541C32.1127 32.2425 32.0633 32.2867 31.9647 32.2867H31.4972C31.4453 32.2867 31.4115 32.2763 31.3959 32.2555C31.3804 32.2347 31.3726 32.206 31.3726 32.1697V30.0001C31.3726 29.9481 31.3674 29.9091 31.357 29.883C31.3466 29.857 31.331 29.8258 31.3103 29.7894L29.4327 26.6209C29.412 26.5845 29.4067 26.5558 29.4171 26.535C29.4327 26.509 29.4665 26.496 29.5184 26.496H30.0793C30.1261 26.496 30.1599 26.5038 30.1806 26.5194C30.2014 26.5299 30.2222 26.5533 30.2429 26.5897L31.692 29.087C31.7232 29.1443 31.7517 29.1755 31.7777 29.1807C31.8037 29.1807 31.8322 29.1546 31.8634 29.1026L33.3046 26.5897C33.3254 26.548 33.3462 26.5221 33.367 26.5116C33.3877 26.5012 33.4215 26.496 33.4682 26.496H33.9513ZM40.1812 32.3648C39.6826 32.3648 39.2515 32.2477 38.888 32.0136C38.5243 31.7743 38.2465 31.4361 38.0544 30.999C37.8621 30.5568 37.7661 30.0287 37.7661 29.4148C37.7661 28.7853 37.8674 28.2468 38.07 27.7993C38.2725 27.3518 38.5581 27.0111 38.9269 26.777C39.2956 26.5377 39.7241 26.418 40.2124 26.418C40.5759 26.418 40.9082 26.4908 41.2096 26.6365C41.5159 26.7821 41.7678 26.9747 41.9652 27.214C42.1678 27.4533 42.2898 27.7083 42.3314 27.9788C42.3366 28.0205 42.3339 28.049 42.3236 28.0647C42.3183 28.0803 42.3002 28.0932 42.2691 28.1037L41.7082 28.1895C41.6821 28.1947 41.6614 28.1922 41.6458 28.1817C41.6354 28.1661 41.6276 28.1427 41.6225 28.1115C41.586 27.9034 41.503 27.7161 41.3732 27.5496C41.2432 27.3779 41.0771 27.2426 40.8746 27.1438C40.6772 27.0397 40.4539 26.9877 40.2046 26.9877C39.8514 26.9877 39.5502 27.0787 39.3009 27.2608C39.0516 27.4377 38.862 27.7057 38.7322 28.0647C38.6075 28.4185 38.5452 28.8529 38.5452 29.368C38.5452 29.9091 38.6075 30.3617 38.7322 30.7259C38.862 31.0849 39.0516 31.3529 39.3009 31.5297C39.5553 31.7066 39.8618 31.7951 40.2202 31.7951C40.4746 31.7951 40.6954 31.7534 40.8824 31.6702C41.0693 31.5817 41.2251 31.4673 41.3498 31.3268C41.4744 31.1812 41.5704 31.0276 41.638 30.8664C41.7055 30.6998 41.7418 30.5386 41.7471 30.3825L41.7549 29.9142C41.7652 29.8623 41.7393 29.8362 41.677 29.8362H40.4071C40.376 29.8362 40.3526 29.831 40.337 29.8206C40.3266 29.805 40.3214 29.7816 40.3214 29.7504V29.4148C40.3214 29.368 40.3473 29.3445 40.3993 29.3445L42.3314 29.3523C42.3677 29.3523 42.3962 29.3601 42.4171 29.3758C42.4378 29.3914 42.4483 29.4148 42.4483 29.446V32.1853C42.4483 32.2216 42.4405 32.2477 42.4249 32.2633C42.4093 32.2789 42.3859 32.2867 42.3548 32.2867H42.1756C42.1392 32.2867 42.108 32.2816 42.0821 32.2711C42.0612 32.2607 42.0457 32.2347 42.0354 32.1931L41.9497 31.4673C41.9444 31.4465 41.9341 31.4361 41.9185 31.4361C41.9081 31.4361 41.8951 31.449 41.8795 31.4751C41.7808 31.6312 41.6561 31.7768 41.5056 31.9121C41.3549 32.0474 41.1706 32.1567 40.9525 32.2399C40.7343 32.3231 40.4772 32.3648 40.1812 32.3648ZM44.3979 26.6053C44.3979 26.5324 44.4291 26.496 44.4914 26.496H45.0523C45.1146 26.496 45.1458 26.5299 45.1458 26.5975V31.6312C45.1458 31.6832 45.1717 31.7092 45.2237 31.7092H47.9193C47.9816 31.7092 48.0127 31.7353 48.0127 31.7873V32.2009C48.0127 32.2269 48.005 32.2477 47.9894 32.2633C47.9738 32.2789 47.9504 32.2867 47.9193 32.2867H44.507C44.4654 32.2867 44.4369 32.2789 44.4213 32.2633C44.4057 32.2425 44.3979 32.2138 44.3979 32.1775V26.6053ZM51.403 32.3648C50.894 32.3648 50.4526 32.2503 50.0786 32.0214C49.7098 31.7924 49.4267 31.4595 49.2295 31.0224C49.0321 30.5802 48.9334 30.0443 48.9334 29.4148C48.9334 28.78 49.0347 28.239 49.2372 27.7915C49.4398 27.344 49.7254 27.0033 50.0942 26.7692C50.4629 26.535 50.9018 26.418 51.4108 26.418C51.9197 26.418 52.356 26.535 52.7196 26.7692C53.0883 27.0033 53.3714 27.3415 53.5688 27.7837C53.7714 28.2259 53.8726 28.767 53.8726 29.407C53.8726 30.0365 53.7739 30.5724 53.5766 31.0146C53.3792 31.4517 53.0936 31.7873 52.7196 32.0214C52.3508 32.2503 51.9119 32.3648 51.403 32.3648ZM51.4186 31.7951C51.9795 31.7951 52.3976 31.6026 52.6729 31.2175C52.9534 30.8273 53.0936 30.2264 53.0936 29.4148C53.0936 28.5875 52.9507 27.9762 52.6651 27.5808C52.3846 27.1854 51.9665 26.9877 51.4108 26.9877C50.8499 26.9877 50.4266 27.1879 50.141 27.5886C49.8552 27.984 49.7125 28.5927 49.7125 29.4148C49.7125 30.2213 49.8552 30.8195 50.141 31.2097C50.4266 31.6 50.8524 31.7951 51.4186 31.7951ZM55.8488 32.2867C55.8176 32.2867 55.7943 32.2789 55.7787 32.2633C55.7631 32.2477 55.7553 32.2243 55.7553 32.1931V26.6053C55.7553 26.5689 55.7631 26.5428 55.7787 26.5272C55.7996 26.5065 55.8254 26.496 55.8566 26.496H57.6562C58.3471 26.496 58.8793 26.6235 59.2533 26.8784C59.6325 27.1333 59.822 27.5054 59.822 27.9944C59.822 28.3066 59.7389 28.5719 59.5727 28.7904C59.4117 29.0038 59.1547 29.1728 58.8014 29.2977C58.7807 29.3029 58.7703 29.3133 58.7703 29.3289C58.7703 29.3445 58.7807 29.355 58.8014 29.3601C59.1754 29.4538 59.4611 29.615 59.6584 29.844C59.861 30.0677 59.9622 30.3669 59.9622 30.7415C59.9622 31.2617 59.7675 31.6494 59.3779 31.9043C58.9884 32.1592 58.4328 32.2867 57.7108 32.2867H55.8488ZM57.6718 31.7404C58.1808 31.7404 58.5599 31.6597 58.8092 31.4985C59.0585 31.332 59.1832 31.0719 59.1832 30.7181C59.1832 30.4632 59.1208 30.2576 58.9962 30.1015C58.8716 29.9403 58.7028 29.8232 58.4898 29.7504C58.277 29.6775 58.0328 29.6411 57.7575 29.6411H56.6123C56.5397 29.6411 56.5032 29.6723 56.5032 29.7348V31.6312C56.5032 31.7041 56.5266 31.7404 56.5733 31.7404H57.6718ZM57.7575 29.0792C57.9133 29.0792 58.0691 29.0636 58.2249 29.0324C58.3807 29.0012 58.521 28.9492 58.6456 28.8763C58.7756 28.7982 58.8768 28.6968 58.9495 28.5719C59.0274 28.4419 59.0663 28.278 59.0663 28.0803C59.0663 27.7264 58.9365 27.4664 58.6768 27.2998C58.4223 27.1282 58.0822 27.0423 57.6562 27.0423H56.6045C56.537 27.0423 56.5032 27.0735 56.5032 27.136V28.9777C56.5032 29.0453 56.5266 29.0792 56.5733 29.0792H57.7575ZM61.377 32.2867C61.3458 32.2867 61.3224 32.2763 61.3069 32.2555C61.2966 32.2295 61.2966 32.1957 61.3069 32.1541L63.3246 26.6053C63.3402 26.5689 63.3584 26.5428 63.3792 26.5272C63.4 26.5065 63.4337 26.496 63.4804 26.496H64.0881C64.1816 26.496 64.2414 26.535 64.2673 26.6131L66.2617 32.1541C66.2721 32.1853 66.2695 32.2165 66.2539 32.2477C66.2436 32.2738 66.2202 32.2867 66.1838 32.2867H65.6306C65.5683 32.2867 65.5268 32.2607 65.506 32.2087L64.9684 30.6947C64.9581 30.6739 64.9477 30.6583 64.9373 30.6478C64.927 30.6374 64.9061 30.6322 64.8749 30.6322H62.6079C62.5611 30.6322 62.53 30.653 62.5144 30.6947L61.9613 32.2165C61.9561 32.2373 61.9432 32.2555 61.9223 32.2711C61.9067 32.2816 61.8809 32.2867 61.8444 32.2867H61.377ZM64.6724 30.0391C64.7347 30.0391 64.7556 30.0053 64.7347 29.9377L63.7998 27.3701C63.7791 27.3233 63.7584 27.2998 63.7375 27.2998C63.7219 27.2998 63.7064 27.3233 63.6908 27.3701L62.7403 29.9533C62.7144 30.0105 62.73 30.0391 62.7871 30.0391H64.6724ZM67.9878 26.6053C67.9878 26.5324 68.0189 26.496 68.0813 26.496H68.6422C68.7045 26.496 68.7357 26.5299 68.7357 26.5975V31.6312C68.7357 31.6832 68.7617 31.7092 68.8136 31.7092H71.5091C71.5715 31.7092 71.6026 31.7353 71.6026 31.7873V32.2009C71.6026 32.2269 71.5948 32.2477 71.5792 32.2633C71.5637 32.2789 71.5403 32.2867 71.5091 32.2867H68.0969C68.0554 32.2867 68.0267 32.2789 68.0112 32.2633C67.9956 32.2425 67.9878 32.2138 67.9878 32.1775V26.6053Z" fill="black"/>
</svg>
