<svg width="185" height="74" viewBox="0 0 185 74" fill="none" xmlns="http://www.w3.org/2000/svg">
<g clip-path="url(#clip0_5_41)">
<path d="M26.2095 1.37418C27.6964 1.44122 29.6436 1.50794 32.051 1.57498C34.4585 1.64202 36.8304 1.67539 39.167 1.67539C42.4948 1.67539 45.6811 1.64202 48.7259 1.57498C51.7706 1.50794 53.9301 1.47458 55.2046 1.47458C62.6393 1.47458 68.2331 2.94729 71.9857 5.8924C75.7383 8.8375 77.6148 12.6195 77.6148 17.2381C77.6148 19.5808 77.0838 21.8901 76.0217 24.1661C75.0305 26.375 73.3312 28.4165 70.9236 30.2908C68.587 32.0981 65.436 33.5708 61.471 34.7086V34.9094C67.0648 35.5789 71.4194 36.8505 74.5348 38.7248C77.721 40.5321 79.9514 42.6739 81.2259 45.1507C82.5005 47.6275 83.1377 50.238 83.1377 52.9823C83.1377 56.7977 82.1109 60.1781 80.0576 63.1232C78.075 66.0015 75.172 68.2772 71.3485 69.9507C67.5249 71.6242 62.9579 72.4608 57.6475 72.4608C56.0896 72.4608 53.753 72.4275 50.6376 72.3604C47.5223 72.2267 43.7693 72.1596 39.3794 72.1596C36.9013 72.1596 34.4585 72.193 32.051 72.26C29.6436 72.26 27.6964 72.3271 26.2095 72.4608V70.4527C28.6169 70.319 30.4225 70.0511 31.6262 69.6495C32.9007 69.2479 33.7503 68.4446 34.1752 67.2398C34.6 66.0349 34.8124 64.2276 34.8124 61.8179V12.0171C34.8124 9.54034 34.6 7.73305 34.1752 6.59523C33.7503 5.39037 32.9007 4.58713 31.6262 4.18551C30.4225 3.71685 28.6169 3.44931 26.2095 3.38227V1.37418ZM52.5494 3.38227C49.2922 3.38227 47.168 3.95134 46.1768 5.08916C45.1857 6.22697 44.6899 8.53629 44.6899 12.0171V61.8179C44.6899 64.1606 44.9023 65.9345 45.3272 67.1394C45.752 68.3442 46.5308 69.1475 47.6638 69.5491C48.7968 69.9507 50.4605 70.1515 52.6556 70.1515C59.5945 70.1515 64.622 68.6454 67.7374 65.6333C70.9236 62.5541 72.5168 58.2033 72.5168 52.5807C72.5168 47.4266 71.0298 43.4438 68.056 40.6325C65.153 37.8211 60.338 36.4155 53.6115 36.4155H42.6719C42.6719 36.4155 42.6719 36.1476 42.6719 35.6122C42.6719 35.0098 42.6719 34.7086 42.6719 34.7086H51.8059C55.9834 34.7086 59.2053 33.9724 61.471 32.4997C63.7367 30.9602 65.2945 28.9522 66.1442 26.4754C66.9939 23.9319 67.4187 21.221 67.4187 18.3426C67.4187 13.3894 66.2504 9.67441 63.9138 7.19766C61.6481 4.65417 57.8599 3.38227 52.5494 3.38227ZM127.857 -0.0314941C132.459 -0.0314941 136.176 0.637976 139.009 1.9766C141.841 3.2485 144.496 4.75458 146.975 6.49482C147.895 7.16429 148.603 7.49887 149.099 7.49887C150.444 7.49887 151.329 5.45741 151.754 1.37418H154.197C154.055 3.85093 153.949 6.86308 153.878 10.4106C153.807 13.9581 153.772 18.6438 153.772 24.4673H151.329C150.833 21.656 150.232 18.945 149.524 16.3345C148.815 13.724 147.647 11.4817 146.019 9.60737C143.965 7.13062 141.274 5.22293 137.947 3.8843C134.619 2.47863 131.185 1.77579 127.644 1.77579C124.104 1.77579 120.882 2.6124 117.979 4.28592C115.147 5.89239 112.704 8.23507 110.651 11.3143C108.598 14.3934 107.004 18.1084 105.871 22.4592C104.809 26.7432 104.278 31.596 104.278 37.0179C104.278 49.0665 106.332 57.9021 110.438 63.5248C114.545 69.0804 120.918 71.8584 129.556 71.8584C132.105 71.8584 134.3 71.5238 136.141 70.8543C138.053 70.1181 139.54 69.4153 140.602 68.7458C141.947 67.8756 142.797 67.0723 143.151 66.3361C143.505 65.5329 143.682 64.4955 143.682 63.2236V53.5847C143.682 50.8404 143.399 48.7986 142.832 47.46C142.266 46.1214 141.204 45.2177 139.646 44.7491C138.159 44.2804 135.929 44.0129 132.955 43.9458V41.9377C134.229 42.0048 135.716 42.0715 137.416 42.1386C139.115 42.1386 140.885 42.1719 142.726 42.239C144.638 42.239 146.373 42.239 147.93 42.239C150.267 42.239 152.356 42.2056 154.197 42.1386C156.109 42.0715 157.702 42.0048 158.976 41.9377V43.9458C157.418 44.0129 156.25 44.2471 155.471 44.6487C154.693 45.0503 154.161 45.8535 153.878 47.0584C153.666 48.2633 153.56 50.1039 153.56 52.5807V72.4608H151.435C151.364 71.323 151.081 70.0845 150.586 68.7458C150.161 67.4072 149.488 66.7378 148.568 66.7378C148.143 66.7378 147.718 66.8382 147.293 67.039C146.868 67.2398 146.125 67.7084 145.063 68.4446C142.726 70.1182 140.248 71.4568 137.628 72.4608C135.008 73.3978 131.964 73.8665 128.494 73.8665C121.201 73.8665 114.935 72.4608 109.695 69.6495C104.526 66.7711 100.561 62.6545 97.7996 57.2997C95.0381 51.9449 93.6574 45.5523 93.6574 38.1224C93.6574 30.2908 95.1443 23.5303 98.1182 17.8406C101.092 12.1509 105.128 7.76672 110.226 4.68753C115.395 1.54162 121.272 -0.0314941 127.857 -0.0314941Z" fill="black"/>
<path d="M187 20.0757H-2V53.7519H187V20.0757Z" fill="#F6E4D6"/>
<path d="M0.229107 43.9296C0.147306 43.9296 0.0859549 43.9103 0.0450544 43.8716C0.00415383 43.8329 -0.0162964 43.7749 -0.0162964 43.6976V29.8555C-0.0162964 29.7653 0.00415383 29.7008 0.0450544 29.6621C0.0995873 29.6107 0.167756 29.5848 0.249557 29.5848H4.97357C6.78681 29.5848 8.18426 29.9007 9.16587 30.5321C10.1611 31.1635 10.6587 32.0853 10.6587 33.2967C10.6587 34.07 10.4406 34.7273 10.0043 35.2686C9.58171 35.7971 8.90685 36.2159 7.97976 36.5252C7.92523 36.538 7.89796 36.5639 7.89796 36.6025C7.89796 36.6412 7.92523 36.6671 7.97976 36.6799C8.96137 36.9119 9.7112 37.3113 10.2293 37.8785C10.761 38.4326 11.0268 39.1738 11.0268 40.1017C11.0268 41.3905 10.5156 42.3509 9.49308 42.9823C8.47056 43.6137 7.01177 43.9296 5.11672 43.9296H0.229107ZM5.01447 42.5763C6.35056 42.5763 7.3458 42.3764 8.00021 41.977C8.65462 41.5645 8.98182 40.9203 8.98182 40.0437C8.98182 39.4123 8.81822 38.9031 8.49101 38.5165C8.16381 38.117 7.72073 37.827 7.16175 37.6465C6.60276 37.466 5.96201 37.3758 5.23942 37.3758H2.23323C2.04235 37.3758 1.94693 37.4532 1.94693 37.6078V42.3057C1.94693 42.4862 2.00828 42.5763 2.13098 42.5763H5.01447ZM5.23942 35.9839C5.64843 35.9839 6.05743 35.9452 6.46644 35.8679C6.87544 35.7906 7.24355 35.6618 7.57075 35.4813C7.91158 35.2879 8.17743 35.0366 8.36831 34.7273C8.57281 34.4052 8.67507 33.9992 8.67507 33.5093C8.67507 32.6328 8.33424 31.9886 7.65255 31.5761C6.98452 31.1507 6.0915 30.9381 4.97357 30.9381H2.21278C2.03556 30.9381 1.94693 31.0154 1.94693 31.1701V35.7326C1.94693 35.9 2.00828 35.9839 2.13098 35.9839H5.23942ZM15.9189 29.8555C15.9189 29.6749 16.0007 29.5848 16.1643 29.5848H25.3465C25.4828 29.5848 25.551 29.6556 25.551 29.7975V30.7834C25.551 30.9381 25.4624 31.0154 25.2852 31.0154H18.148C17.9708 31.0154 17.8822 31.0927 17.8822 31.2474V35.7712C17.8822 35.9131 17.9571 35.9839 18.1071 35.9839H23.4037C23.5537 35.9839 23.6287 36.0547 23.6287 36.1966V37.2212C23.6287 37.2726 23.615 37.3178 23.5878 37.3565C23.5605 37.3824 23.4992 37.3952 23.4037 37.3952H18.1071C17.9571 37.3952 17.8822 37.466 17.8822 37.6078V42.3057C17.8822 42.4344 17.9503 42.499 18.0867 42.499H25.5919C25.7419 42.499 25.8169 42.5635 25.8169 42.6923V43.7169C25.8169 43.7815 25.7964 43.8329 25.7555 43.8716C25.7282 43.9103 25.6737 43.9296 25.5919 43.9296H16.2052C16.0144 43.9296 15.9189 43.8395 15.9189 43.6589V29.8555ZM29.5374 43.9296C29.4556 43.9296 29.3942 43.9037 29.3533 43.8523C29.326 43.7877 29.326 43.7042 29.3533 43.6009L34.6499 29.8555C34.6908 29.7653 34.7386 29.7008 34.793 29.6621C34.8478 29.6107 34.9362 29.5848 35.0589 29.5848H36.654C36.8994 29.5848 37.0564 29.6815 37.1243 29.8748L42.3596 43.6009C42.387 43.6783 42.3801 43.7556 42.3392 43.8329C42.3121 43.8975 42.2508 43.9296 42.1551 43.9296H40.7031C40.5395 43.9296 40.4307 43.8651 40.3759 43.7363L38.9649 39.9858C38.9378 39.9343 38.9104 39.8956 38.8831 39.8698C38.856 39.8439 38.8013 39.8311 38.7195 39.8311H32.7684C32.6457 39.8311 32.5639 39.8825 32.523 39.9858L31.0711 43.7556C31.0575 43.8071 31.0236 43.8523 30.9689 43.8909C30.928 43.9168 30.8598 43.9296 30.7644 43.9296H29.5374ZM38.1878 38.3618C38.3514 38.3618 38.4061 38.2779 38.3514 38.1105L35.8973 31.7501C35.8429 31.6341 35.7885 31.5761 35.7337 31.5761C35.6928 31.5761 35.6519 31.6341 35.611 31.7501L33.1161 38.1492C33.0481 38.291 33.0891 38.3618 33.2388 38.3618H38.1878ZM56.7484 39.1544C56.7484 40.3016 56.5369 41.2424 56.1144 41.977C55.7054 42.7117 55.0919 43.253 54.2739 43.6009C53.4559 43.9489 52.4607 44.1229 51.2881 44.1229C50.0067 44.1229 48.9637 43.9296 48.1592 43.5429C47.3548 43.1563 46.7617 42.5698 46.3801 41.7837C45.9984 40.9976 45.8075 40.0116 45.8075 38.8258V29.8555C45.8075 29.6749 45.8893 29.5848 46.0529 29.5848H47.5253C47.6889 29.5848 47.7707 29.6687 47.7707 29.8361V39.2318C47.7707 40.4045 48.0774 41.2745 48.691 41.8417C49.3045 42.4089 50.2112 42.6923 51.4108 42.6923C52.2015 42.6923 52.8697 42.5698 53.415 42.325C53.974 42.0671 54.3897 41.6805 54.6624 41.165C54.9487 40.6496 55.0919 39.9858 55.0919 39.1738V29.8361C55.0919 29.6687 55.1668 29.5848 55.3168 29.5848H56.5234C56.6735 29.5848 56.7484 29.6621 56.7484 29.8168V39.1544ZM61.0221 29.7975C61.0221 29.7329 61.0357 29.6815 61.063 29.6428C61.1039 29.6041 61.1722 29.5848 61.2675 29.5848H72.2698C72.3516 29.5848 72.4129 29.6041 72.4538 29.6428C72.4947 29.6815 72.5152 29.7329 72.5152 29.7975V30.8028C72.5152 30.9315 72.4334 30.9961 72.2698 30.9961H68.1184C67.9683 30.9961 67.8934 31.0606 67.8934 31.1894V43.6783C67.8934 43.8457 67.8116 43.9296 67.648 43.9296H66.1756C66.012 43.9296 65.9302 43.8457 65.9302 43.6783V31.2087C65.9302 31.0669 65.8619 30.9961 65.7257 30.9961H61.2675C61.1039 30.9961 61.0221 30.9315 61.0221 30.8028V29.7975ZM87.1219 29.5848C87.2173 29.5848 87.2786 29.6107 87.306 29.6621C87.3469 29.7136 87.34 29.7781 87.2855 29.8555L82.4184 37.5498C82.364 37.6272 82.3297 37.7045 82.3161 37.7818C82.3026 37.8592 82.2957 37.9945 82.2957 38.1878V43.6009C82.2957 43.8202 82.1661 43.9296 81.9071 43.9296H80.6801C80.5439 43.9296 80.4552 43.9037 80.4143 43.8523C80.3734 43.8008 80.3529 43.7297 80.3529 43.6396V38.2651C80.3529 38.1364 80.3394 38.0397 80.312 37.9752C80.2846 37.9106 80.2437 37.8333 80.1893 37.7432L75.2608 29.8941C75.2064 29.804 75.1925 29.7329 75.2199 29.6815C75.2608 29.6169 75.3495 29.5848 75.4857 29.5848H76.9582C77.0809 29.5848 77.1696 29.6041 77.224 29.6428C77.2784 29.6687 77.3332 29.7267 77.3876 29.8168L81.1914 36.0032C81.2732 36.1451 81.348 36.2224 81.4163 36.2352C81.4846 36.2352 81.5595 36.1707 81.6413 36.0419L85.4246 29.8168C85.479 29.7136 85.5338 29.6493 85.5882 29.6235C85.6426 29.5976 85.7313 29.5848 85.854 29.5848H87.1219ZM103.476 44.1229C102.167 44.1229 101.035 43.8329 100.081 43.253C99.1263 42.6602 98.397 41.8223 97.8926 40.7397C97.388 39.6443 97.136 38.3359 97.136 36.8152C97.136 35.2558 97.4018 33.9219 97.9335 32.8134C98.4652 31.7048 99.215 30.8608 100.183 30.2808C101.151 29.688 102.276 29.3915 103.557 29.3915C104.512 29.3915 105.384 29.572 106.175 29.9328C106.979 30.2936 107.64 30.7706 108.159 31.3634C108.69 31.9562 109.011 32.5879 109.12 33.258C109.133 33.3612 109.126 33.432 109.099 33.4707C109.086 33.5093 109.038 33.5414 108.956 33.5673L107.484 33.78C107.416 33.7928 107.361 33.7865 107.32 33.7606C107.293 33.722 107.272 33.664 107.259 33.5867C107.163 33.0712 106.945 32.6072 106.604 32.1947C106.263 31.7694 105.827 31.4342 105.296 31.1894C104.777 30.9315 104.191 30.8028 103.537 30.8028C102.61 30.8028 101.819 31.0282 101.165 31.4794C100.51 31.9175 100.013 32.5814 99.6718 33.4707C99.3446 34.3472 99.181 35.4233 99.181 36.6992C99.181 38.0397 99.3446 39.161 99.6718 40.0631C100.013 40.9524 100.51 41.6162 101.165 42.0543C101.833 42.4924 102.637 42.7116 103.578 42.7116C104.246 42.7116 104.825 42.6084 105.316 42.4023C105.807 42.1831 106.216 41.8997 106.543 41.5517C106.87 41.1909 107.122 40.8105 107.3 40.4111C107.477 39.9985 107.572 39.5991 107.586 39.2124L107.607 38.0525C107.634 37.9237 107.566 37.8592 107.402 37.8592H104.069C103.987 37.8592 103.925 37.8464 103.885 37.8205C103.857 37.7818 103.844 37.7238 103.844 37.6465V36.8152C103.844 36.6992 103.912 36.6412 104.048 36.6412L109.12 36.6605C109.215 36.6605 109.29 36.6799 109.345 36.7185C109.399 36.7572 109.427 36.8152 109.427 36.8925V43.6783C109.427 43.7684 109.406 43.8329 109.365 43.8716C109.324 43.9103 109.263 43.9296 109.181 43.9296H108.711C108.615 43.9296 108.533 43.9168 108.465 43.8909C108.411 43.8651 108.37 43.8008 108.343 43.6976L108.118 41.8997C108.104 41.8482 108.077 41.8223 108.036 41.8223C108.009 41.8223 107.975 41.8545 107.934 41.919C107.674 42.3057 107.347 42.6664 106.952 43.0016C106.557 43.3368 106.073 43.6075 105.5 43.8136C104.928 44.0197 104.253 44.1229 103.476 44.1229ZM114.544 29.8555C114.544 29.6749 114.626 29.5848 114.79 29.5848H116.262C116.426 29.5848 116.508 29.6687 116.508 29.8361V42.3057C116.508 42.4344 116.576 42.499 116.712 42.499H123.788C123.952 42.499 124.033 42.5635 124.033 42.6923V43.7169C124.033 43.7815 124.013 43.8329 123.972 43.8716C123.931 43.9103 123.87 43.9296 123.788 43.9296H114.831C114.722 43.9296 114.647 43.9103 114.606 43.8716C114.565 43.8202 114.544 43.7491 114.544 43.6589V29.8555ZM132.933 44.1229C131.597 44.1229 130.438 43.8395 129.456 43.2723C128.488 42.7051 127.745 41.8803 127.227 40.7977C126.709 39.7023 126.45 38.3746 126.45 36.8152C126.45 35.2427 126.716 33.9025 127.248 32.794C127.779 31.6855 128.529 30.8414 129.497 30.2614C130.465 29.6815 131.617 29.3915 132.953 29.3915C134.289 29.3915 135.434 29.6815 136.389 30.2614C137.357 30.8414 138.1 31.6793 138.618 32.7747C139.15 33.8701 139.416 35.2106 139.416 36.7959C139.416 38.3553 139.156 39.683 138.638 40.7784C138.12 41.861 137.371 42.6923 136.389 43.2723C135.421 43.8395 134.269 44.1229 132.933 44.1229ZM132.974 42.7116C134.446 42.7116 135.544 42.2349 136.266 41.281C137.002 40.3144 137.371 38.8258 137.371 36.8152C137.371 34.7659 136.996 33.2515 136.246 32.272C135.51 31.2926 134.412 30.8028 132.953 30.8028C131.481 30.8028 130.37 31.2989 129.62 32.2914C128.87 33.2708 128.495 34.7787 128.495 36.8152C128.495 38.813 128.87 40.2951 129.62 41.2617C130.37 42.2283 131.487 42.7116 132.974 42.7116ZM144.603 43.9296C144.521 43.9296 144.46 43.9103 144.419 43.8716C144.378 43.8329 144.358 43.7749 144.358 43.6976V29.8555C144.358 29.7653 144.378 29.7008 144.419 29.6621C144.474 29.6107 144.542 29.5848 144.623 29.5848H149.347C151.161 29.5848 152.558 29.9007 153.54 30.5321C154.535 31.1635 155.033 32.0853 155.033 33.2967C155.033 34.07 154.815 34.7273 154.378 35.2686C153.956 35.7971 153.281 36.2159 152.354 36.5252C152.299 36.538 152.272 36.5639 152.272 36.6025C152.272 36.6412 152.299 36.6671 152.354 36.6799C153.335 36.9119 154.085 37.3113 154.603 37.8785C155.135 38.4326 155.401 39.1738 155.401 40.1017C155.401 41.3905 154.889 42.3509 153.867 42.9823C152.844 43.6137 151.386 43.9296 149.491 43.9296H144.603ZM149.388 42.5763C150.725 42.5763 151.72 42.3764 152.374 41.977C153.029 41.5645 153.356 40.9203 153.356 40.0437C153.356 39.4123 153.192 38.9031 152.865 38.5165C152.538 38.117 152.095 37.827 151.536 37.6465C150.977 37.466 150.336 37.3758 149.613 37.3758H146.607C146.416 37.3758 146.321 37.4532 146.321 37.6078V42.3057C146.321 42.4862 146.382 42.5763 146.505 42.5763H149.388ZM149.613 35.9839C150.022 35.9839 150.431 35.9452 150.84 35.8679C151.249 35.7906 151.617 35.6618 151.945 35.4813C152.286 35.2879 152.552 35.0366 152.742 34.7273C152.947 34.4052 153.049 33.9992 153.049 33.5093C153.049 32.6328 152.708 31.9886 152.026 31.5761C151.359 31.1507 150.466 30.9381 149.347 30.9381H146.587C146.41 30.9381 146.321 31.0154 146.321 31.1701V35.7326C146.321 35.9 146.382 35.9839 146.505 35.9839H149.613ZM159.114 43.9296C159.033 43.9296 158.971 43.9037 158.93 43.8523C158.903 43.7877 158.903 43.7042 158.93 43.6009L164.227 29.8555C164.268 29.7653 164.316 29.7008 164.37 29.6621C164.425 29.6107 164.513 29.5848 164.636 29.5848H166.231C166.477 29.5848 166.634 29.6815 166.702 29.8748L171.937 43.6009C171.964 43.6783 171.957 43.7556 171.916 43.8329C171.889 43.8975 171.828 43.9296 171.732 43.9296H170.28C170.117 43.9296 170.008 43.8651 169.953 43.7363L168.542 39.9858C168.515 39.9343 168.488 39.8956 168.46 39.8698C168.433 39.8439 168.378 39.8311 168.297 39.8311H162.346C162.223 39.8311 162.141 39.8825 162.1 39.9858L160.648 43.7556C160.635 43.8071 160.601 43.8523 160.546 43.8909C160.505 43.9168 160.437 43.9296 160.341 43.9296H159.114ZM167.765 38.3618C167.929 38.3618 167.983 38.2779 167.929 38.1105L165.474 31.7501C165.42 31.6341 165.366 31.5761 165.311 31.5761C165.27 31.5761 165.229 31.6341 165.188 31.7501L162.693 38.1492C162.625 38.291 162.666 38.3618 162.816 38.3618H167.765ZM176.468 29.8555C176.468 29.6749 176.55 29.5848 176.713 29.5848H178.186C178.349 29.5848 178.431 29.6687 178.431 29.8361V42.3057C178.431 42.4344 178.499 42.499 178.636 42.499H185.711C185.875 42.499 185.957 42.5635 185.957 42.6923V43.7169C185.957 43.7815 185.936 43.8329 185.895 43.8716C185.855 43.9103 185.793 43.9296 185.711 43.9296H176.754C176.645 43.9296 176.57 43.9103 176.529 43.8716C176.488 43.8202 176.468 43.7491 176.468 43.6589V29.8555Z" fill="black"/>
</g>
<defs>
<clipPath id="clip0_5_41">
<rect width="185" height="74" fill="white"/>
</clipPath>
</defs>
</svg>
