<svg width="185" height="74" viewBox="0 0 185 74" fill="none" xmlns="http://www.w3.org/2000/svg">
<g clip-path="url(#clip0_5_41)">
<path d="M26.2095 1.37418C27.6964 1.44122 29.6436 1.50794 32.051 1.57498C34.4585 1.64202 36.8304 1.67539 39.167 1.67539C42.4948 1.67539 45.6811 1.64202 48.7259 1.57498C51.7706 1.50794 53.9301 1.47458 55.2046 1.47458C62.6393 1.47458 68.2331 2.94729 71.9857 5.8924C75.7383 8.8375 77.6148 12.6195 77.6148 17.2381C77.6148 19.5808 77.0838 21.8901 76.0217 24.1661C75.0305 26.375 73.3312 28.4165 70.9236 30.2908C68.587 32.0981 65.436 33.5708 61.471 34.7086V34.9094C67.0648 35.5789 71.4194 36.8505 74.5348 38.7248C77.721 40.5321 79.9514 42.6739 81.2259 45.1507C82.5005 47.6275 83.1377 50.238 83.1377 52.9823C83.1377 56.7977 82.1109 60.1781 80.0576 63.1232C78.075 66.0015 75.172 68.2772 71.3485 69.9507C67.5249 71.6242 62.9579 72.4608 57.6475 72.4608C56.0896 72.4608 53.753 72.4275 50.6376 72.3604C47.5223 72.2267 43.7693 72.1596 39.3794 72.1596C36.9013 72.1596 34.4585 72.193 32.051 72.26C29.6436 72.26 27.6964 72.3271 26.2095 72.4608V70.4527C28.6169 70.319 30.4225 70.0511 31.6262 69.6495C32.9007 69.2479 33.7503 68.4446 34.1752 67.2398C34.6 66.0349 34.8124 64.2276 34.8124 61.8179V12.0171C34.8124 9.54034 34.6 7.73305 34.1752 6.59523C33.7503 5.39037 32.9007 4.58713 31.6262 4.18551C30.4225 3.71685 28.6169 3.44931 26.2095 3.38227V1.37418ZM52.5494 3.38227C49.2922 3.38227 47.168 3.95134 46.1768 5.08916C45.1857 6.22697 44.6899 8.53629 44.6899 12.0171V61.8179C44.6899 64.1606 44.9023 65.9345 45.3272 67.1394C45.752 68.3442 46.5308 69.1475 47.6638 69.5491C48.7968 69.9507 50.4605 70.1515 52.6556 70.1515C59.5945 70.1515 64.622 68.6454 67.7374 65.6333C70.9236 62.5541 72.5168 58.2033 72.5168 52.5807C72.5168 47.4266 71.0298 43.4438 68.056 40.6325C65.153 37.8211 60.338 36.4155 53.6115 36.4155H42.6719C42.6719 36.4155 42.6719 36.1476 42.6719 35.6122C42.6719 35.0098 42.6719 34.7086 42.6719 34.7086H51.8059C55.9834 34.7086 59.2053 33.9724 61.471 32.4997C63.7367 30.9602 65.2945 28.9522 66.1442 26.4754C66.9939 23.9319 67.4187 21.221 67.4187 18.3426C67.4187 13.3894 66.2504 9.67441 63.9138 7.19766C61.6481 4.65417 57.8599 3.38227 52.5494 3.38227ZM127.857 -0.0314941C132.459 -0.0314941 136.176 0.637976 139.009 1.9766C141.841 3.2485 144.496 4.75458 146.975 6.49482C147.895 7.16429 148.603 7.49887 149.099 7.49887C150.444 7.49887 151.329 5.45741 151.754 1.37418H154.197C154.055 3.85093 153.949 6.86308 153.878 10.4106C153.807 13.9581 153.772 18.6438 153.772 24.4673H151.329C150.833 21.656 150.232 18.945 149.524 16.3345C148.815 13.724 147.647 11.4817 146.019 9.60737C143.965 7.13062 141.274 5.22293 137.947 3.8843C134.619 2.47863 131.185 1.77579 127.644 1.77579C124.104 1.77579 120.882 2.6124 117.979 4.28592C115.147 5.89239 112.704 8.23507 110.651 11.3143C108.598 14.3934 107.004 18.1084 105.871 22.4592C104.809 26.7432 104.278 31.596 104.278 37.0179C104.278 49.0665 106.332 57.9021 110.438 63.5248C114.545 69.0804 120.918 71.8584 129.556 71.8584C132.105 71.8584 134.3 71.5238 136.141 70.8543C138.053 70.1181 139.54 69.4153 140.602 68.7458C141.947 67.8756 142.797 67.0723 143.151 66.3361C143.505 65.5329 143.682 64.4955 143.682 63.2236V53.5847C143.682 50.8404 143.399 48.7986 142.832 47.46C142.266 46.1214 141.204 45.2177 139.646 44.7491C138.159 44.2804 135.929 44.0129 132.955 43.9458V41.9377C134.229 42.0048 135.716 42.0715 137.416 42.1386C139.115 42.1386 140.885 42.1719 142.726 42.239C144.638 42.239 146.373 42.239 147.93 42.239C150.267 42.239 152.356 42.2056 154.197 42.1386C156.109 42.0715 157.702 42.0048 158.976 41.9377V43.9458C157.418 44.0129 156.25 44.2471 155.471 44.6487C154.693 45.0503 154.161 45.8535 153.878 47.0584C153.666 48.2633 153.56 50.1039 153.56 52.5807V72.4608H151.435C151.364 71.323 151.081 70.0845 150.586 68.7458C150.161 67.4072 149.488 66.7378 148.568 66.7378C148.143 66.7378 147.718 66.8382 147.293 67.039C146.868 67.2398 146.125 67.7084 145.063 68.4446C142.726 70.1182 140.248 71.4568 137.628 72.4608C135.008 73.3978 131.964 73.8665 128.494 73.8665C121.201 73.8665 114.935 72.4608 109.695 69.6495C104.526 66.7711 100.561 62.6545 97.7996 57.2997C95.0381 51.9449 93.6574 45.5523 93.6574 38.1224C93.6574 30.2908 95.1443 23.5303 98.1182 17.8406C101.092 12.1509 105.128 7.76672 110.226 4.68753C115.395 1.54162 121.272 -0.0314941 127.857 -0.0314941Z" fill="black"/>
<path d="M187 20.0757H-2V53.7519H187V20.0757Z" fill="#F6E4D6"/>
<path d="M35.3695 44.8769C35.2877 44.8769 35.2263 44.8576 35.1854 44.8189C35.1445 44.7803 35.1241 44.7223 35.1241 44.6449V30.8028C35.1241 30.7127 35.1445 30.6481 35.1854 30.6095C35.24 30.558 35.3081 30.5321 35.3899 30.5321H40.1139C41.9272 30.5321 43.3246 30.848 44.3063 31.4794C45.3015 32.1109 45.7991 33.0326 45.7991 34.244C45.7991 35.0173 45.581 35.6746 45.1447 36.2159C44.7221 36.7445 44.0472 37.1632 43.1201 37.4725C43.0656 37.4853 43.0383 37.5112 43.0383 37.5499C43.0383 37.5885 43.0656 37.6144 43.1201 37.6272C44.1018 37.8592 44.8516 38.2586 45.3697 38.8258C45.9014 39.3799 46.1672 40.1211 46.1672 41.0491C46.1672 42.3378 45.656 43.2982 44.6335 43.9296C43.6109 44.5611 42.1521 44.8769 40.2571 44.8769H35.3695ZM40.1548 43.5237C41.4909 43.5237 42.4862 43.3238 43.1406 42.9243C43.795 42.5118 44.1222 41.8676 44.1222 40.9911C44.1222 40.3596 43.9586 39.8505 43.6314 39.4638C43.3042 39.0644 42.8611 38.7744 42.3021 38.5938C41.7431 38.4133 41.1024 38.3232 40.3798 38.3232H37.3736C37.1827 38.3232 37.0873 38.4005 37.0873 38.5552V43.253C37.0873 43.4335 37.1487 43.5237 37.2714 43.5237H40.1548ZM40.3798 36.9312C40.7888 36.9312 41.1978 36.8926 41.6068 36.8152C42.0158 36.7379 42.3839 36.6091 42.7111 36.4286C43.052 36.2353 43.3178 35.9839 43.5087 35.6746C43.7132 35.3525 43.8154 34.9465 43.8154 34.4567C43.8154 33.5801 43.4746 32.9359 42.7929 32.5234C42.1249 32.0981 41.2319 31.8854 40.1139 31.8854H37.3532C37.1759 31.8854 37.0873 31.9627 37.0873 32.1174V36.6799C37.0873 36.8474 37.1487 36.9312 37.2714 36.9312H40.3798ZM51.0593 30.8028C51.0593 30.6222 51.1411 30.5321 51.3047 30.5321H60.4869C60.6232 30.5321 60.6914 30.6029 60.6914 30.7448V31.7308C60.6914 31.8854 60.6028 31.9627 60.4255 31.9627H53.2884C53.1111 31.9627 53.0226 32.0401 53.0226 32.1947V36.7186C53.0226 36.8604 53.0975 36.9312 53.2475 36.9312H58.5441C58.6941 36.9312 58.7691 37.002 58.7691 37.1439V38.1685C58.7691 38.22 58.7554 38.2652 58.7282 38.3038C58.7009 38.3297 58.6395 38.3425 58.5441 38.3425H53.2475C53.0975 38.3425 53.0226 38.4133 53.0226 38.5552V43.253C53.0226 43.3818 53.0907 43.4463 53.2271 43.4463H60.7323C60.8822 43.4463 60.9573 43.5109 60.9573 43.6396V44.6643C60.9573 44.7288 60.9368 44.7803 60.8959 44.8189C60.8686 44.8576 60.8141 44.8769 60.7323 44.8769H51.3456C51.1547 44.8769 51.0593 44.7868 51.0593 44.6063V30.8028ZM64.6777 44.8769C64.5959 44.8769 64.5346 44.8511 64.4937 44.7996C64.4664 44.7351 64.4664 44.6515 64.4937 44.5483L69.7902 30.8028C69.8311 30.7127 69.879 30.6481 69.9334 30.6095C69.9882 30.558 70.0766 30.5321 70.1993 30.5321H71.7944C72.0398 30.5321 72.1968 30.6288 72.2647 30.8221L77.5 44.5483C77.5274 44.6256 77.5205 44.7029 77.4796 44.7803C77.4525 44.8448 77.3912 44.8769 77.2955 44.8769H75.8435C75.6799 44.8769 75.5711 44.8124 75.5163 44.6836L74.1053 40.9331C74.0782 40.8816 74.0508 40.843 74.0235 40.8171C73.9964 40.7912 73.9417 40.7784 73.8599 40.7784H67.9088C67.7861 40.7784 67.7043 40.8299 67.6634 40.9331L66.2115 44.7029C66.1979 44.7544 66.164 44.7996 66.1093 44.8383C66.0684 44.8642 66.0002 44.8769 65.9048 44.8769H64.6777ZM73.3281 39.3091C73.4917 39.3091 73.5465 39.2253 73.4917 39.0578L71.0377 32.6974C70.9833 32.5814 70.9289 32.5234 70.8741 32.5234C70.8332 32.5234 70.7923 32.5814 70.7514 32.6974L68.2565 39.0965C68.1885 39.2384 68.2294 39.3091 68.3792 39.3091H73.3281ZM103.34 44.5483C102.031 44.5483 100.899 44.2583 99.9449 43.6783C98.9903 43.0855 98.261 42.2477 97.7567 41.1651C97.252 40.0697 97 38.7613 97 37.2406C97 35.6812 97.2659 34.3472 97.7976 33.2387C98.3293 32.1302 99.0791 31.2861 100.047 30.7061C101.015 30.1134 102.14 29.8168 103.421 29.8168C104.376 29.8168 105.248 29.9974 106.039 30.3581C106.843 30.7189 107.505 31.196 108.023 31.7888C108.555 32.3815 108.875 33.0133 108.984 33.6834C108.997 33.7866 108.991 33.8573 108.964 33.896C108.95 33.9347 108.902 33.9668 108.82 33.9927L107.348 34.2053C107.28 34.2181 107.225 34.2119 107.184 34.186C107.157 34.1473 107.137 34.0893 107.123 34.012C107.027 33.4966 106.809 33.0326 106.469 32.6201C106.128 32.1947 105.691 31.8595 105.16 31.6148C104.642 31.3569 104.055 31.2281 103.401 31.2281C102.474 31.2281 101.683 31.4536 101.029 31.9048C100.374 32.3429 99.8766 33.0067 99.5359 33.896C99.2087 34.7725 99.045 35.8486 99.045 37.1246C99.045 38.4651 99.2087 39.5863 99.5359 40.4884C99.8766 41.3777 100.374 42.0416 101.029 42.4797C101.697 42.9178 102.501 43.137 103.442 43.137C104.11 43.137 104.689 43.0338 105.18 42.8277C105.671 42.6085 106.08 42.325 106.407 41.977C106.734 41.6163 106.986 41.2359 107.164 40.8364C107.341 40.4239 107.436 40.0244 107.45 39.6378L107.471 38.4778C107.498 38.3491 107.43 38.2845 107.266 38.2845H103.933C103.851 38.2845 103.79 38.2717 103.749 38.2458C103.721 38.2072 103.708 38.1492 103.708 38.0719V37.2406C103.708 37.1246 103.776 37.0666 103.912 37.0666L108.984 37.0859C109.079 37.0859 109.154 37.1052 109.209 37.1439C109.263 37.1826 109.291 37.2406 109.291 37.3179V44.1036C109.291 44.1937 109.27 44.2583 109.229 44.297C109.188 44.3356 109.127 44.355 109.045 44.355H108.575C108.479 44.355 108.398 44.3422 108.33 44.3163C108.275 44.2904 108.234 44.2262 108.207 44.123L107.982 42.325C107.968 42.2736 107.941 42.2477 107.9 42.2477C107.873 42.2477 107.839 42.2798 107.798 42.3444C107.539 42.731 107.211 43.0918 106.816 43.427C106.421 43.7622 105.937 44.0328 105.364 44.239C104.792 44.4451 104.117 44.5483 103.34 44.5483ZM114.409 30.2808C114.409 30.1003 114.49 30.0102 114.654 30.0102H116.126C116.29 30.0102 116.372 30.094 116.372 30.2615V42.731C116.372 42.8598 116.44 42.9243 116.576 42.9243H123.652C123.816 42.9243 123.897 42.9889 123.897 43.1177V44.1423C123.897 44.2068 123.877 44.2583 123.836 44.297C123.795 44.3356 123.734 44.355 123.652 44.355H114.695C114.586 44.355 114.511 44.3356 114.47 44.297C114.429 44.2455 114.409 44.1744 114.409 44.0843V30.2808ZM132.797 44.5483C131.461 44.5483 130.302 44.2648 129.32 43.6976C128.352 43.1305 127.609 42.3057 127.091 41.2231C126.573 40.1277 126.314 38.8 126.314 37.2406C126.314 35.6681 126.58 34.3279 127.112 33.2194C127.644 32.1109 128.393 31.2668 129.361 30.6868C130.329 30.1068 131.481 29.8168 132.817 29.8168C134.153 29.8168 135.299 30.1068 136.253 30.6868C137.221 31.2668 137.964 32.1046 138.482 33.2C139.014 34.2955 139.28 35.6359 139.28 37.2212C139.28 38.7806 139.02 40.1083 138.503 41.2037C137.984 42.2864 137.235 43.1177 136.253 43.6976C135.285 44.2648 134.133 44.5483 132.797 44.5483ZM132.838 43.137C134.31 43.137 135.408 42.6602 136.13 41.7064C136.867 40.7398 137.235 39.2512 137.235 37.2406C137.235 35.1913 136.86 33.6768 136.11 32.6974C135.374 31.718 134.276 31.2281 132.817 31.2281C131.345 31.2281 130.234 31.7242 129.484 32.7167C128.734 33.6961 128.359 35.2041 128.359 37.2406C128.359 39.2384 128.734 40.7204 129.484 41.6871C130.234 42.6537 131.352 43.137 132.838 43.137ZM144.467 44.355C144.385 44.355 144.324 44.3356 144.283 44.297C144.242 44.2583 144.222 44.2003 144.222 44.123V30.2808C144.222 30.1907 144.242 30.1262 144.283 30.0875C144.338 30.036 144.406 30.0102 144.488 30.0102H149.212C151.025 30.0102 152.422 30.326 153.404 30.9575C154.399 31.5889 154.897 32.5106 154.897 33.722C154.897 34.4953 154.679 35.1526 154.242 35.6939C153.82 36.2225 153.145 36.6412 152.218 36.9506C152.163 36.9634 152.136 36.9892 152.136 37.0279C152.136 37.0666 152.163 37.0924 152.218 37.1052C153.199 37.3372 153.949 37.7366 154.467 38.3038C154.999 38.8579 155.265 39.5991 155.265 40.5271C155.265 41.8158 154.754 42.7762 153.731 43.4077C152.709 44.0391 151.25 44.355 149.355 44.355H144.467ZM149.253 43.0017C150.589 43.0017 151.584 42.8018 152.238 42.4024C152.893 41.9898 153.22 41.3456 153.22 40.4691C153.22 39.8377 153.056 39.3285 152.729 38.9418C152.402 38.5424 151.959 38.2524 151.4 38.0719C150.841 37.8913 150.2 37.8012 149.477 37.8012H146.471C146.281 37.8012 146.185 37.8785 146.185 38.0332V42.731C146.185 42.9116 146.246 43.0017 146.369 43.0017H149.253ZM149.477 36.4093C149.886 36.4093 150.295 36.3706 150.704 36.2933C151.113 36.2159 151.482 36.0872 151.809 35.9066C152.15 35.7133 152.416 35.462 152.606 35.1526C152.811 34.8305 152.913 34.4245 152.913 33.9347C152.913 33.0582 152.572 32.414 151.891 32.0014C151.223 31.5761 150.33 31.3634 149.212 31.3634H146.451C146.274 31.3634 146.185 31.4408 146.185 31.5954V36.1579C146.185 36.3254 146.246 36.4093 146.369 36.4093H149.477Z" fill="black"/>
</g>
<defs>
<clipPath id="clip0_5_41">
<rect width="185" height="74" fill="white"/>
</clipPath>
</defs>
</svg>
